<mxfile host="app.diagrams.net" agent="Mozilla/5.0 (Windows NT 10.0; Win64; x64) AppleWebKit/537.36 (KHTML, like Gecko) Chrome/126.0.0.0 Safari/537.36 OPR/112.0.0.0" version="24.7.7">
  <diagram id="R2lEEEUBdFMjLlhIrx00" name="Page-1">
    <mxGraphModel dx="1993" dy="653" grid="1" gridSize="10" guides="1" tooltips="1" connect="1" arrows="1" fold="1" page="0" pageScale="1" pageWidth="850" pageHeight="1100" background="none" math="0" shadow="0" extFonts="Permanent Marker^https://fonts.googleapis.com/css?family=Permanent+Marker">
      <root>
        <mxCell id="0" />
        <mxCell id="1" parent="0" />
        <mxCell id="6SH4dM4aXBTcx1g6xvi3-198" style="edgeStyle=orthogonalEdgeStyle;rounded=1;orthogonalLoop=1;jettySize=auto;html=1;entryX=0.5;entryY=0;entryDx=0;entryDy=0;strokeColor=#E07A5F;fontColor=#393C56;fillColor=#F2CC8F;startArrow=ERone;startFill=0;endArrow=ERmany;endFill=0;" edge="1" parent="1" source="C-vyLk0tnHw3VtMMgP7b-2" target="6SH4dM4aXBTcx1g6xvi3-136">
          <mxGeometry relative="1" as="geometry" />
        </mxCell>
        <mxCell id="C-vyLk0tnHw3VtMMgP7b-2" value="Sales" style="shape=table;startSize=30;container=1;collapsible=1;childLayout=tableLayout;fixedRows=1;rowLines=0;fontStyle=1;align=center;resizeLast=1;fillColor=#F2CC8F;fontColor=#393C56;strokeColor=#E07A5F;rounded=1;labelBackgroundColor=none;" parent="1" vertex="1">
          <mxGeometry x="350" y="100" width="250" height="130" as="geometry" />
        </mxCell>
        <mxCell id="C-vyLk0tnHw3VtMMgP7b-3" value="" style="shape=partialRectangle;collapsible=0;dropTarget=0;pointerEvents=0;fillColor=none;points=[[0,0.5],[1,0.5]];portConstraint=eastwest;top=0;left=0;right=0;bottom=1;rounded=1;labelBackgroundColor=none;strokeColor=#E07A5F;fontColor=#393C56;" parent="C-vyLk0tnHw3VtMMgP7b-2" vertex="1">
          <mxGeometry y="30" width="250" height="30" as="geometry" />
        </mxCell>
        <mxCell id="C-vyLk0tnHw3VtMMgP7b-4" value="PK" style="shape=partialRectangle;overflow=hidden;connectable=0;fillColor=none;top=0;left=0;bottom=0;right=0;fontStyle=1;rounded=1;labelBackgroundColor=none;strokeColor=#E07A5F;fontColor=#393C56;" parent="C-vyLk0tnHw3VtMMgP7b-3" vertex="1">
          <mxGeometry width="30" height="30" as="geometry">
            <mxRectangle width="30" height="30" as="alternateBounds" />
          </mxGeometry>
        </mxCell>
        <mxCell id="C-vyLk0tnHw3VtMMgP7b-5" value="Sale_id int NOT NULL " style="shape=partialRectangle;overflow=hidden;connectable=0;fillColor=none;top=0;left=0;bottom=0;right=0;align=left;spacingLeft=6;fontStyle=5;rounded=1;labelBackgroundColor=none;strokeColor=#E07A5F;fontColor=#393C56;" parent="C-vyLk0tnHw3VtMMgP7b-3" vertex="1">
          <mxGeometry x="30" width="220" height="30" as="geometry">
            <mxRectangle width="220" height="30" as="alternateBounds" />
          </mxGeometry>
        </mxCell>
        <mxCell id="C-vyLk0tnHw3VtMMgP7b-9" value="" style="shape=partialRectangle;collapsible=0;dropTarget=0;pointerEvents=0;fillColor=none;points=[[0,0.5],[1,0.5]];portConstraint=eastwest;top=0;left=0;right=0;bottom=0;rounded=1;labelBackgroundColor=none;strokeColor=#E07A5F;fontColor=#393C56;" parent="C-vyLk0tnHw3VtMMgP7b-2" vertex="1">
          <mxGeometry y="60" width="250" height="30" as="geometry" />
        </mxCell>
        <mxCell id="C-vyLk0tnHw3VtMMgP7b-10" value="" style="shape=partialRectangle;overflow=hidden;connectable=0;fillColor=none;top=0;left=0;bottom=0;right=0;rounded=1;labelBackgroundColor=none;strokeColor=#E07A5F;fontColor=#393C56;" parent="C-vyLk0tnHw3VtMMgP7b-9" vertex="1">
          <mxGeometry width="30" height="30" as="geometry">
            <mxRectangle width="30" height="30" as="alternateBounds" />
          </mxGeometry>
        </mxCell>
        <mxCell id="C-vyLk0tnHw3VtMMgP7b-11" value="Sale_date date NOT NULL" style="shape=partialRectangle;overflow=hidden;connectable=0;fillColor=none;top=0;left=0;bottom=0;right=0;align=left;spacingLeft=6;rounded=1;labelBackgroundColor=none;strokeColor=#E07A5F;fontColor=#393C56;" parent="C-vyLk0tnHw3VtMMgP7b-9" vertex="1">
          <mxGeometry x="30" width="220" height="30" as="geometry">
            <mxRectangle width="220" height="30" as="alternateBounds" />
          </mxGeometry>
        </mxCell>
        <mxCell id="6SH4dM4aXBTcx1g6xvi3-114" value="" style="shape=partialRectangle;collapsible=0;dropTarget=0;pointerEvents=0;fillColor=none;points=[[0,0.5],[1,0.5]];portConstraint=eastwest;top=0;left=0;right=0;bottom=0;rounded=1;labelBackgroundColor=none;strokeColor=#E07A5F;fontColor=#393C56;" vertex="1" parent="C-vyLk0tnHw3VtMMgP7b-2">
          <mxGeometry y="90" width="250" height="30" as="geometry" />
        </mxCell>
        <mxCell id="6SH4dM4aXBTcx1g6xvi3-115" value="" style="shape=partialRectangle;overflow=hidden;connectable=0;fillColor=none;top=0;left=0;bottom=0;right=0;rounded=1;labelBackgroundColor=none;strokeColor=#E07A5F;fontColor=#393C56;" vertex="1" parent="6SH4dM4aXBTcx1g6xvi3-114">
          <mxGeometry width="30" height="30" as="geometry">
            <mxRectangle width="30" height="30" as="alternateBounds" />
          </mxGeometry>
        </mxCell>
        <mxCell id="6SH4dM4aXBTcx1g6xvi3-116" value="Total_amount decimal NOT NULL" style="shape=partialRectangle;overflow=hidden;connectable=0;fillColor=none;top=0;left=0;bottom=0;right=0;align=left;spacingLeft=6;rounded=1;labelBackgroundColor=none;strokeColor=#E07A5F;fontColor=#393C56;" vertex="1" parent="6SH4dM4aXBTcx1g6xvi3-114">
          <mxGeometry x="30" width="220" height="30" as="geometry">
            <mxRectangle width="220" height="30" as="alternateBounds" />
          </mxGeometry>
        </mxCell>
        <mxCell id="C-vyLk0tnHw3VtMMgP7b-13" value="Suppliers" style="shape=table;startSize=30;container=1;collapsible=1;childLayout=tableLayout;fixedRows=1;rowLines=0;fontStyle=1;align=center;resizeLast=1;fillColor=#F2CC8F;fontColor=#393C56;strokeColor=#E07A5F;rounded=1;labelBackgroundColor=none;" parent="1" vertex="1">
          <mxGeometry x="-410" y="540" width="260" height="100" as="geometry" />
        </mxCell>
        <mxCell id="C-vyLk0tnHw3VtMMgP7b-14" value="" style="shape=partialRectangle;collapsible=0;dropTarget=0;pointerEvents=0;fillColor=none;points=[[0,0.5],[1,0.5]];portConstraint=eastwest;top=0;left=0;right=0;bottom=1;rounded=1;labelBackgroundColor=none;strokeColor=#E07A5F;fontColor=#393C56;" parent="C-vyLk0tnHw3VtMMgP7b-13" vertex="1">
          <mxGeometry y="30" width="260" height="30" as="geometry" />
        </mxCell>
        <mxCell id="C-vyLk0tnHw3VtMMgP7b-15" value="PK, FK1" style="shape=partialRectangle;overflow=hidden;connectable=0;fillColor=none;top=0;left=0;bottom=0;right=0;fontStyle=1;rounded=1;labelBackgroundColor=none;strokeColor=#E07A5F;fontColor=#393C56;" parent="C-vyLk0tnHw3VtMMgP7b-14" vertex="1">
          <mxGeometry width="50" height="30" as="geometry">
            <mxRectangle width="50" height="30" as="alternateBounds" />
          </mxGeometry>
        </mxCell>
        <mxCell id="C-vyLk0tnHw3VtMMgP7b-16" value="Supplier_id int NOT NULL " style="shape=partialRectangle;overflow=hidden;connectable=0;fillColor=none;top=0;left=0;bottom=0;right=0;align=left;spacingLeft=6;fontStyle=5;rounded=1;labelBackgroundColor=none;strokeColor=#E07A5F;fontColor=#393C56;" parent="C-vyLk0tnHw3VtMMgP7b-14" vertex="1">
          <mxGeometry x="50" width="210" height="30" as="geometry">
            <mxRectangle width="210" height="30" as="alternateBounds" />
          </mxGeometry>
        </mxCell>
        <mxCell id="C-vyLk0tnHw3VtMMgP7b-20" value="" style="shape=partialRectangle;collapsible=0;dropTarget=0;pointerEvents=0;fillColor=none;points=[[0,0.5],[1,0.5]];portConstraint=eastwest;top=0;left=0;right=0;bottom=0;rounded=1;labelBackgroundColor=none;strokeColor=#E07A5F;fontColor=#393C56;" parent="C-vyLk0tnHw3VtMMgP7b-13" vertex="1">
          <mxGeometry y="60" width="260" height="30" as="geometry" />
        </mxCell>
        <mxCell id="C-vyLk0tnHw3VtMMgP7b-21" value="" style="shape=partialRectangle;overflow=hidden;connectable=0;fillColor=none;top=0;left=0;bottom=0;right=0;rounded=1;labelBackgroundColor=none;strokeColor=#E07A5F;fontColor=#393C56;" parent="C-vyLk0tnHw3VtMMgP7b-20" vertex="1">
          <mxGeometry width="50" height="30" as="geometry">
            <mxRectangle width="50" height="30" as="alternateBounds" />
          </mxGeometry>
        </mxCell>
        <mxCell id="C-vyLk0tnHw3VtMMgP7b-22" value="Supplier_name char(50) NOT NULL" style="shape=partialRectangle;overflow=hidden;connectable=0;fillColor=none;top=0;left=0;bottom=0;right=0;align=left;spacingLeft=6;rounded=1;labelBackgroundColor=none;strokeColor=#E07A5F;fontColor=#393C56;" parent="C-vyLk0tnHw3VtMMgP7b-20" vertex="1">
          <mxGeometry x="50" width="210" height="30" as="geometry">
            <mxRectangle width="210" height="30" as="alternateBounds" />
          </mxGeometry>
        </mxCell>
        <mxCell id="6SH4dM4aXBTcx1g6xvi3-55" value="Products" style="shape=table;startSize=30;container=1;collapsible=1;childLayout=tableLayout;fixedRows=1;rowLines=0;fontStyle=1;align=center;resizeLast=1;fillColor=#F2CC8F;fontColor=#393C56;strokeColor=#E07A5F;strokeWidth=1;rounded=1;swimlaneLine=1;shadow=0;swimlaneFillColor=default;labelBackgroundColor=none;" vertex="1" parent="1">
          <mxGeometry x="-420" y="100" width="250" height="340" as="geometry" />
        </mxCell>
        <mxCell id="6SH4dM4aXBTcx1g6xvi3-56" value="" style="shape=partialRectangle;collapsible=0;dropTarget=0;pointerEvents=0;fillColor=none;points=[[0,0.5],[1,0.5]];portConstraint=eastwest;top=0;left=0;right=0;bottom=1;rounded=1;labelBackgroundColor=none;strokeColor=#E07A5F;fontColor=#393C56;" vertex="1" parent="6SH4dM4aXBTcx1g6xvi3-55">
          <mxGeometry y="30" width="250" height="30" as="geometry" />
        </mxCell>
        <mxCell id="6SH4dM4aXBTcx1g6xvi3-57" value="PK" style="shape=partialRectangle;overflow=hidden;connectable=0;fillColor=none;top=0;left=0;bottom=0;right=0;fontStyle=1;rounded=1;labelBackgroundColor=none;strokeColor=#E07A5F;fontColor=#393C56;" vertex="1" parent="6SH4dM4aXBTcx1g6xvi3-56">
          <mxGeometry width="30" height="30" as="geometry">
            <mxRectangle width="30" height="30" as="alternateBounds" />
          </mxGeometry>
        </mxCell>
        <mxCell id="6SH4dM4aXBTcx1g6xvi3-58" value="Product_id int NOT NULL " style="shape=partialRectangle;overflow=hidden;connectable=0;fillColor=none;top=0;left=0;bottom=0;right=0;align=left;spacingLeft=6;fontStyle=5;rounded=1;labelBackgroundColor=none;strokeColor=#E07A5F;fontColor=#393C56;" vertex="1" parent="6SH4dM4aXBTcx1g6xvi3-56">
          <mxGeometry x="30" width="220" height="30" as="geometry">
            <mxRectangle width="220" height="30" as="alternateBounds" />
          </mxGeometry>
        </mxCell>
        <mxCell id="6SH4dM4aXBTcx1g6xvi3-59" value="" style="shape=partialRectangle;collapsible=0;dropTarget=0;pointerEvents=0;fillColor=none;points=[[0,0.5],[1,0.5]];portConstraint=eastwest;top=0;left=0;right=0;bottom=0;rounded=1;labelBackgroundColor=none;strokeColor=#E07A5F;fontColor=#393C56;" vertex="1" parent="6SH4dM4aXBTcx1g6xvi3-55">
          <mxGeometry y="60" width="250" height="30" as="geometry" />
        </mxCell>
        <mxCell id="6SH4dM4aXBTcx1g6xvi3-60" value="" style="shape=partialRectangle;overflow=hidden;connectable=0;fillColor=none;top=0;left=0;bottom=0;right=0;rounded=1;labelBackgroundColor=none;strokeColor=#E07A5F;fontColor=#393C56;" vertex="1" parent="6SH4dM4aXBTcx1g6xvi3-59">
          <mxGeometry width="30" height="30" as="geometry">
            <mxRectangle width="30" height="30" as="alternateBounds" />
          </mxGeometry>
        </mxCell>
        <mxCell id="6SH4dM4aXBTcx1g6xvi3-61" value="Product_name char(50) NOT NULL" style="shape=partialRectangle;overflow=hidden;connectable=0;fillColor=none;top=0;left=0;bottom=0;right=0;align=left;spacingLeft=6;rounded=1;labelBackgroundColor=none;strokeColor=#E07A5F;fontColor=#393C56;" vertex="1" parent="6SH4dM4aXBTcx1g6xvi3-59">
          <mxGeometry x="30" width="220" height="30" as="geometry">
            <mxRectangle width="220" height="30" as="alternateBounds" />
          </mxGeometry>
        </mxCell>
        <mxCell id="6SH4dM4aXBTcx1g6xvi3-69" value="" style="shape=partialRectangle;collapsible=0;dropTarget=0;pointerEvents=0;fillColor=none;points=[[0,0.5],[1,0.5]];portConstraint=eastwest;top=0;left=0;right=0;bottom=0;rounded=1;labelBackgroundColor=none;strokeColor=#E07A5F;fontColor=#393C56;" vertex="1" parent="6SH4dM4aXBTcx1g6xvi3-55">
          <mxGeometry y="90" width="250" height="30" as="geometry" />
        </mxCell>
        <mxCell id="6SH4dM4aXBTcx1g6xvi3-70" value="" style="shape=partialRectangle;overflow=hidden;connectable=0;fillColor=none;top=0;left=0;bottom=0;right=0;rounded=1;labelBackgroundColor=none;strokeColor=#E07A5F;fontColor=#393C56;" vertex="1" parent="6SH4dM4aXBTcx1g6xvi3-69">
          <mxGeometry width="30" height="30" as="geometry">
            <mxRectangle width="30" height="30" as="alternateBounds" />
          </mxGeometry>
        </mxCell>
        <mxCell id="6SH4dM4aXBTcx1g6xvi3-71" value="Price int NOT NULL" style="shape=partialRectangle;overflow=hidden;connectable=0;fillColor=none;top=0;left=0;bottom=0;right=0;align=left;spacingLeft=6;rounded=1;labelBackgroundColor=none;strokeColor=#E07A5F;fontColor=#393C56;" vertex="1" parent="6SH4dM4aXBTcx1g6xvi3-69">
          <mxGeometry x="30" width="220" height="30" as="geometry">
            <mxRectangle width="220" height="30" as="alternateBounds" />
          </mxGeometry>
        </mxCell>
        <mxCell id="6SH4dM4aXBTcx1g6xvi3-72" value="" style="shape=partialRectangle;collapsible=0;dropTarget=0;pointerEvents=0;fillColor=none;points=[[0,0.5],[1,0.5]];portConstraint=eastwest;top=0;left=0;right=0;bottom=0;rounded=1;labelBackgroundColor=none;strokeColor=#E07A5F;fontColor=#393C56;" vertex="1" parent="6SH4dM4aXBTcx1g6xvi3-55">
          <mxGeometry y="120" width="250" height="30" as="geometry" />
        </mxCell>
        <mxCell id="6SH4dM4aXBTcx1g6xvi3-73" value="" style="shape=partialRectangle;overflow=hidden;connectable=0;fillColor=none;top=0;left=0;bottom=0;right=0;rounded=1;labelBackgroundColor=none;strokeColor=#E07A5F;fontColor=#393C56;" vertex="1" parent="6SH4dM4aXBTcx1g6xvi3-72">
          <mxGeometry width="30" height="30" as="geometry">
            <mxRectangle width="30" height="30" as="alternateBounds" />
          </mxGeometry>
        </mxCell>
        <mxCell id="6SH4dM4aXBTcx1g6xvi3-74" value="Type char(10) " style="shape=partialRectangle;overflow=hidden;connectable=0;fillColor=none;top=0;left=0;bottom=0;right=0;align=left;spacingLeft=6;rounded=1;labelBackgroundColor=none;strokeColor=#E07A5F;fontColor=#393C56;" vertex="1" parent="6SH4dM4aXBTcx1g6xvi3-72">
          <mxGeometry x="30" width="220" height="30" as="geometry">
            <mxRectangle width="220" height="30" as="alternateBounds" />
          </mxGeometry>
        </mxCell>
        <mxCell id="6SH4dM4aXBTcx1g6xvi3-75" value="" style="shape=partialRectangle;collapsible=0;dropTarget=0;pointerEvents=0;fillColor=none;points=[[0,0.5],[1,0.5]];portConstraint=eastwest;top=0;left=0;right=0;bottom=0;rounded=1;labelBackgroundColor=none;strokeColor=#E07A5F;fontColor=#393C56;" vertex="1" parent="6SH4dM4aXBTcx1g6xvi3-55">
          <mxGeometry y="150" width="250" height="30" as="geometry" />
        </mxCell>
        <mxCell id="6SH4dM4aXBTcx1g6xvi3-76" value="" style="shape=partialRectangle;overflow=hidden;connectable=0;fillColor=none;top=0;left=0;bottom=0;right=0;rounded=1;labelBackgroundColor=none;strokeColor=#E07A5F;fontColor=#393C56;" vertex="1" parent="6SH4dM4aXBTcx1g6xvi3-75">
          <mxGeometry width="30" height="30" as="geometry">
            <mxRectangle width="30" height="30" as="alternateBounds" />
          </mxGeometry>
        </mxCell>
        <mxCell id="6SH4dM4aXBTcx1g6xvi3-77" value="Gauge decimal" style="shape=partialRectangle;overflow=hidden;connectable=0;fillColor=none;top=0;left=0;bottom=0;right=0;align=left;spacingLeft=6;rounded=1;labelBackgroundColor=none;strokeColor=#E07A5F;fontColor=#393C56;" vertex="1" parent="6SH4dM4aXBTcx1g6xvi3-75">
          <mxGeometry x="30" width="220" height="30" as="geometry">
            <mxRectangle width="220" height="30" as="alternateBounds" />
          </mxGeometry>
        </mxCell>
        <mxCell id="6SH4dM4aXBTcx1g6xvi3-78" value="" style="shape=partialRectangle;collapsible=0;dropTarget=0;pointerEvents=0;fillColor=none;points=[[0,0.5],[1,0.5]];portConstraint=eastwest;top=0;left=0;right=0;bottom=0;rounded=1;labelBackgroundColor=none;strokeColor=#E07A5F;fontColor=#393C56;" vertex="1" parent="6SH4dM4aXBTcx1g6xvi3-55">
          <mxGeometry y="180" width="250" height="30" as="geometry" />
        </mxCell>
        <mxCell id="6SH4dM4aXBTcx1g6xvi3-79" value="" style="shape=partialRectangle;overflow=hidden;connectable=0;fillColor=none;top=0;left=0;bottom=0;right=0;rounded=1;labelBackgroundColor=none;strokeColor=#E07A5F;fontColor=#393C56;" vertex="1" parent="6SH4dM4aXBTcx1g6xvi3-78">
          <mxGeometry width="30" height="30" as="geometry">
            <mxRectangle width="30" height="30" as="alternateBounds" />
          </mxGeometry>
        </mxCell>
        <mxCell id="6SH4dM4aXBTcx1g6xvi3-80" value="Colour char(10) " style="shape=partialRectangle;overflow=hidden;connectable=0;fillColor=none;top=0;left=0;bottom=0;right=0;align=left;spacingLeft=6;rounded=1;labelBackgroundColor=none;strokeColor=#E07A5F;fontColor=#393C56;" vertex="1" parent="6SH4dM4aXBTcx1g6xvi3-78">
          <mxGeometry x="30" width="220" height="30" as="geometry">
            <mxRectangle width="220" height="30" as="alternateBounds" />
          </mxGeometry>
        </mxCell>
        <mxCell id="6SH4dM4aXBTcx1g6xvi3-81" value="" style="shape=partialRectangle;collapsible=0;dropTarget=0;pointerEvents=0;fillColor=none;points=[[0,0.5],[1,0.5]];portConstraint=eastwest;top=0;left=0;right=0;bottom=0;rounded=1;labelBackgroundColor=none;strokeColor=#E07A5F;fontColor=#393C56;" vertex="1" parent="6SH4dM4aXBTcx1g6xvi3-55">
          <mxGeometry y="210" width="250" height="30" as="geometry" />
        </mxCell>
        <mxCell id="6SH4dM4aXBTcx1g6xvi3-82" value="" style="shape=partialRectangle;overflow=hidden;connectable=0;fillColor=none;top=0;left=0;bottom=0;right=0;rounded=1;labelBackgroundColor=none;strokeColor=#E07A5F;fontColor=#393C56;" vertex="1" parent="6SH4dM4aXBTcx1g6xvi3-81">
          <mxGeometry width="30" height="30" as="geometry">
            <mxRectangle width="30" height="30" as="alternateBounds" />
          </mxGeometry>
        </mxCell>
        <mxCell id="6SH4dM4aXBTcx1g6xvi3-83" value="Height float" style="shape=partialRectangle;overflow=hidden;connectable=0;fillColor=none;top=0;left=0;bottom=0;right=0;align=left;spacingLeft=6;rounded=1;labelBackgroundColor=none;strokeColor=#E07A5F;fontColor=#393C56;" vertex="1" parent="6SH4dM4aXBTcx1g6xvi3-81">
          <mxGeometry x="30" width="220" height="30" as="geometry">
            <mxRectangle width="220" height="30" as="alternateBounds" />
          </mxGeometry>
        </mxCell>
        <mxCell id="6SH4dM4aXBTcx1g6xvi3-84" value="" style="shape=partialRectangle;collapsible=0;dropTarget=0;pointerEvents=0;fillColor=none;points=[[0,0.5],[1,0.5]];portConstraint=eastwest;top=0;left=0;right=0;bottom=0;rounded=1;labelBackgroundColor=none;strokeColor=#E07A5F;fontColor=#393C56;" vertex="1" parent="6SH4dM4aXBTcx1g6xvi3-55">
          <mxGeometry y="240" width="250" height="30" as="geometry" />
        </mxCell>
        <mxCell id="6SH4dM4aXBTcx1g6xvi3-85" value="" style="shape=partialRectangle;overflow=hidden;connectable=0;fillColor=none;top=0;left=0;bottom=0;right=0;rounded=1;labelBackgroundColor=none;strokeColor=#E07A5F;fontColor=#393C56;" vertex="1" parent="6SH4dM4aXBTcx1g6xvi3-84">
          <mxGeometry width="30" height="30" as="geometry">
            <mxRectangle width="30" height="30" as="alternateBounds" />
          </mxGeometry>
        </mxCell>
        <mxCell id="6SH4dM4aXBTcx1g6xvi3-86" value="Weight float" style="shape=partialRectangle;overflow=hidden;connectable=0;fillColor=none;top=0;left=0;bottom=0;right=0;align=left;spacingLeft=6;rounded=1;labelBackgroundColor=none;strokeColor=#E07A5F;fontColor=#393C56;" vertex="1" parent="6SH4dM4aXBTcx1g6xvi3-84">
          <mxGeometry x="30" width="220" height="30" as="geometry">
            <mxRectangle width="220" height="30" as="alternateBounds" />
          </mxGeometry>
        </mxCell>
        <mxCell id="6SH4dM4aXBTcx1g6xvi3-87" value="" style="shape=partialRectangle;collapsible=0;dropTarget=0;pointerEvents=0;fillColor=none;points=[[0,0.5],[1,0.5]];portConstraint=eastwest;top=0;left=0;right=0;bottom=0;rounded=1;labelBackgroundColor=none;strokeColor=#E07A5F;fontColor=#393C56;" vertex="1" parent="6SH4dM4aXBTcx1g6xvi3-55">
          <mxGeometry y="270" width="250" height="30" as="geometry" />
        </mxCell>
        <mxCell id="6SH4dM4aXBTcx1g6xvi3-88" value="" style="shape=partialRectangle;overflow=hidden;connectable=0;fillColor=none;top=0;left=0;bottom=0;right=0;rounded=1;labelBackgroundColor=none;strokeColor=#E07A5F;fontColor=#393C56;" vertex="1" parent="6SH4dM4aXBTcx1g6xvi3-87">
          <mxGeometry width="30" height="30" as="geometry">
            <mxRectangle width="30" height="30" as="alternateBounds" />
          </mxGeometry>
        </mxCell>
        <mxCell id="6SH4dM4aXBTcx1g6xvi3-89" value="Date date NOT NULL " style="shape=partialRectangle;overflow=hidden;connectable=0;fillColor=none;top=0;left=0;bottom=0;right=0;align=left;spacingLeft=6;rounded=1;labelBackgroundColor=none;strokeColor=#E07A5F;fontColor=#393C56;" vertex="1" parent="6SH4dM4aXBTcx1g6xvi3-87">
          <mxGeometry x="30" width="220" height="30" as="geometry">
            <mxRectangle width="220" height="30" as="alternateBounds" />
          </mxGeometry>
        </mxCell>
        <mxCell id="6SH4dM4aXBTcx1g6xvi3-90" value="" style="shape=partialRectangle;collapsible=0;dropTarget=0;pointerEvents=0;fillColor=none;points=[[0,0.5],[1,0.5]];portConstraint=eastwest;top=0;left=0;right=0;bottom=0;rounded=1;labelBackgroundColor=none;strokeColor=#E07A5F;fontColor=#393C56;" vertex="1" parent="6SH4dM4aXBTcx1g6xvi3-55">
          <mxGeometry y="300" width="250" height="30" as="geometry" />
        </mxCell>
        <mxCell id="6SH4dM4aXBTcx1g6xvi3-91" value="" style="shape=partialRectangle;overflow=hidden;connectable=0;fillColor=none;top=0;left=0;bottom=0;right=0;rounded=1;labelBackgroundColor=none;strokeColor=#E07A5F;fontColor=#393C56;" vertex="1" parent="6SH4dM4aXBTcx1g6xvi3-90">
          <mxGeometry width="30" height="30" as="geometry">
            <mxRectangle width="30" height="30" as="alternateBounds" />
          </mxGeometry>
        </mxCell>
        <mxCell id="6SH4dM4aXBTcx1g6xvi3-92" value="Dimensions char(50) NULL" style="shape=partialRectangle;overflow=hidden;connectable=0;fillColor=none;top=0;left=0;bottom=0;right=0;align=left;spacingLeft=6;rounded=1;labelBackgroundColor=none;strokeColor=#E07A5F;fontColor=#393C56;" vertex="1" parent="6SH4dM4aXBTcx1g6xvi3-90">
          <mxGeometry x="30" width="220" height="30" as="geometry">
            <mxRectangle width="220" height="30" as="alternateBounds" />
          </mxGeometry>
        </mxCell>
        <mxCell id="6SH4dM4aXBTcx1g6xvi3-136" value="Sale_Details" style="shape=table;startSize=30;container=1;collapsible=1;childLayout=tableLayout;fixedRows=1;rowLines=0;fontStyle=1;align=center;resizeLast=1;fillColor=#F2CC8F;fontColor=#393C56;strokeColor=#E07A5F;rounded=1;labelBackgroundColor=none;" vertex="1" parent="1">
          <mxGeometry x="350" y="280" width="250" height="220" as="geometry" />
        </mxCell>
        <mxCell id="6SH4dM4aXBTcx1g6xvi3-137" value="" style="shape=partialRectangle;collapsible=0;dropTarget=0;pointerEvents=0;fillColor=none;points=[[0,0.5],[1,0.5]];portConstraint=eastwest;top=0;left=0;right=0;bottom=1;rounded=1;labelBackgroundColor=none;strokeColor=#E07A5F;fontColor=#393C56;" vertex="1" parent="6SH4dM4aXBTcx1g6xvi3-136">
          <mxGeometry y="30" width="250" height="30" as="geometry" />
        </mxCell>
        <mxCell id="6SH4dM4aXBTcx1g6xvi3-138" value="PK" style="shape=partialRectangle;overflow=hidden;connectable=0;fillColor=none;top=0;left=0;bottom=0;right=0;fontStyle=1;rounded=1;labelBackgroundColor=none;strokeColor=#E07A5F;fontColor=#393C56;" vertex="1" parent="6SH4dM4aXBTcx1g6xvi3-137">
          <mxGeometry width="30" height="30" as="geometry">
            <mxRectangle width="30" height="30" as="alternateBounds" />
          </mxGeometry>
        </mxCell>
        <mxCell id="6SH4dM4aXBTcx1g6xvi3-139" value="SalesDetail_id int NOT NULL" style="shape=partialRectangle;overflow=hidden;connectable=0;fillColor=none;top=0;left=0;bottom=0;right=0;align=left;spacingLeft=6;fontStyle=5;rounded=1;labelBackgroundColor=none;strokeColor=#E07A5F;fontColor=#393C56;" vertex="1" parent="6SH4dM4aXBTcx1g6xvi3-137">
          <mxGeometry x="30" width="220" height="30" as="geometry">
            <mxRectangle width="220" height="30" as="alternateBounds" />
          </mxGeometry>
        </mxCell>
        <mxCell id="6SH4dM4aXBTcx1g6xvi3-140" value="" style="shape=partialRectangle;collapsible=0;dropTarget=0;pointerEvents=0;fillColor=none;points=[[0,0.5],[1,0.5]];portConstraint=eastwest;top=0;left=0;right=0;bottom=0;rounded=1;labelBackgroundColor=none;strokeColor=#E07A5F;fontColor=#393C56;" vertex="1" parent="6SH4dM4aXBTcx1g6xvi3-136">
          <mxGeometry y="60" width="250" height="30" as="geometry" />
        </mxCell>
        <mxCell id="6SH4dM4aXBTcx1g6xvi3-141" value="FK" style="shape=partialRectangle;overflow=hidden;connectable=0;fillColor=none;top=0;left=0;bottom=0;right=0;rounded=1;labelBackgroundColor=none;strokeColor=#E07A5F;fontColor=#393C56;" vertex="1" parent="6SH4dM4aXBTcx1g6xvi3-140">
          <mxGeometry width="30" height="30" as="geometry">
            <mxRectangle width="30" height="30" as="alternateBounds" />
          </mxGeometry>
        </mxCell>
        <mxCell id="6SH4dM4aXBTcx1g6xvi3-142" value="Sale_id int NOT NULL" style="shape=partialRectangle;overflow=hidden;connectable=0;fillColor=none;top=0;left=0;bottom=0;right=0;align=left;spacingLeft=6;rounded=1;labelBackgroundColor=none;strokeColor=#E07A5F;fontColor=#393C56;" vertex="1" parent="6SH4dM4aXBTcx1g6xvi3-140">
          <mxGeometry x="30" width="220" height="30" as="geometry">
            <mxRectangle width="220" height="30" as="alternateBounds" />
          </mxGeometry>
        </mxCell>
        <mxCell id="6SH4dM4aXBTcx1g6xvi3-194" value="" style="shape=partialRectangle;collapsible=0;dropTarget=0;pointerEvents=0;fillColor=none;points=[[0,0.5],[1,0.5]];portConstraint=eastwest;top=0;left=0;right=0;bottom=0;rounded=1;labelBackgroundColor=none;strokeColor=#E07A5F;fontColor=#393C56;" vertex="1" parent="6SH4dM4aXBTcx1g6xvi3-136">
          <mxGeometry y="90" width="250" height="50" as="geometry" />
        </mxCell>
        <mxCell id="6SH4dM4aXBTcx1g6xvi3-195" value="FK1&#xa;FK2" style="shape=partialRectangle;overflow=hidden;connectable=0;fillColor=none;top=0;left=0;bottom=0;right=0;rounded=1;labelBackgroundColor=none;strokeColor=#E07A5F;fontColor=#393C56;" vertex="1" parent="6SH4dM4aXBTcx1g6xvi3-194">
          <mxGeometry width="30" height="50" as="geometry">
            <mxRectangle width="30" height="50" as="alternateBounds" />
          </mxGeometry>
        </mxCell>
        <mxCell id="6SH4dM4aXBTcx1g6xvi3-196" value="Product_id int NOT NULL&#xa;&#xa;Supplier_id int NOT NULL&#xa;" style="shape=partialRectangle;overflow=hidden;connectable=0;fillColor=none;top=0;left=0;bottom=0;right=0;align=left;spacingLeft=6;rounded=1;labelBackgroundColor=none;strokeColor=#E07A5F;fontColor=#393C56;" vertex="1" parent="6SH4dM4aXBTcx1g6xvi3-194">
          <mxGeometry x="30" width="220" height="50" as="geometry">
            <mxRectangle width="220" height="50" as="alternateBounds" />
          </mxGeometry>
        </mxCell>
        <mxCell id="6SH4dM4aXBTcx1g6xvi3-143" value="" style="shape=partialRectangle;collapsible=0;dropTarget=0;pointerEvents=0;fillColor=none;points=[[0,0.5],[1,0.5]];portConstraint=eastwest;top=0;left=0;right=0;bottom=0;rounded=1;labelBackgroundColor=none;strokeColor=#E07A5F;fontColor=#393C56;" vertex="1" parent="6SH4dM4aXBTcx1g6xvi3-136">
          <mxGeometry y="140" width="250" height="30" as="geometry" />
        </mxCell>
        <mxCell id="6SH4dM4aXBTcx1g6xvi3-144" value="" style="shape=partialRectangle;overflow=hidden;connectable=0;fillColor=none;top=0;left=0;bottom=0;right=0;rounded=1;labelBackgroundColor=none;strokeColor=#E07A5F;fontColor=#393C56;" vertex="1" parent="6SH4dM4aXBTcx1g6xvi3-143">
          <mxGeometry width="30" height="30" as="geometry">
            <mxRectangle width="30" height="30" as="alternateBounds" />
          </mxGeometry>
        </mxCell>
        <mxCell id="6SH4dM4aXBTcx1g6xvi3-145" value="Quantity int NOT NULL" style="shape=partialRectangle;overflow=hidden;connectable=0;fillColor=none;top=0;left=0;bottom=0;right=0;align=left;spacingLeft=6;rounded=1;labelBackgroundColor=none;strokeColor=#E07A5F;fontColor=#393C56;" vertex="1" parent="6SH4dM4aXBTcx1g6xvi3-143">
          <mxGeometry x="30" width="220" height="30" as="geometry">
            <mxRectangle width="220" height="30" as="alternateBounds" />
          </mxGeometry>
        </mxCell>
        <mxCell id="6SH4dM4aXBTcx1g6xvi3-146" value="" style="shape=partialRectangle;collapsible=0;dropTarget=0;pointerEvents=0;fillColor=none;points=[[0,0.5],[1,0.5]];portConstraint=eastwest;top=0;left=0;right=0;bottom=0;rounded=1;labelBackgroundColor=none;strokeColor=#E07A5F;fontColor=#393C56;" vertex="1" parent="6SH4dM4aXBTcx1g6xvi3-136">
          <mxGeometry y="170" width="250" height="40" as="geometry" />
        </mxCell>
        <mxCell id="6SH4dM4aXBTcx1g6xvi3-147" value="" style="shape=partialRectangle;overflow=hidden;connectable=0;fillColor=none;top=0;left=0;bottom=0;right=0;rounded=1;labelBackgroundColor=none;strokeColor=#E07A5F;fontColor=#393C56;" vertex="1" parent="6SH4dM4aXBTcx1g6xvi3-146">
          <mxGeometry width="30" height="40" as="geometry">
            <mxRectangle width="30" height="40" as="alternateBounds" />
          </mxGeometry>
        </mxCell>
        <mxCell id="6SH4dM4aXBTcx1g6xvi3-148" value="Price decimal NOT NULL" style="shape=partialRectangle;overflow=hidden;connectable=0;fillColor=none;top=0;left=0;bottom=0;right=0;align=left;spacingLeft=6;rounded=1;labelBackgroundColor=none;strokeColor=#E07A5F;fontColor=#393C56;" vertex="1" parent="6SH4dM4aXBTcx1g6xvi3-146">
          <mxGeometry x="30" width="220" height="40" as="geometry">
            <mxRectangle width="220" height="40" as="alternateBounds" />
          </mxGeometry>
        </mxCell>
        <mxCell id="6SH4dM4aXBTcx1g6xvi3-170" style="edgeStyle=orthogonalEdgeStyle;rounded=1;orthogonalLoop=1;jettySize=auto;html=1;strokeColor=#E07A5F;fontColor=#393C56;fillColor=#F2CC8F;endArrow=ERmany;endFill=0;startArrow=ERone;startFill=0;entryX=0.5;entryY=1;entryDx=0;entryDy=0;" edge="1" parent="1" source="C-vyLk0tnHw3VtMMgP7b-14" target="6SH4dM4aXBTcx1g6xvi3-177">
          <mxGeometry relative="1" as="geometry">
            <mxPoint x="70" y="460" as="targetPoint" />
          </mxGeometry>
        </mxCell>
        <mxCell id="6SH4dM4aXBTcx1g6xvi3-172" style="edgeStyle=orthogonalEdgeStyle;rounded=1;orthogonalLoop=1;jettySize=auto;html=1;exitX=1;exitY=0.5;exitDx=0;exitDy=0;strokeColor=#E07A5F;fontColor=#393C56;fillColor=#F2CC8F;startArrow=ERone;startFill=0;endArrow=ERmany;endFill=0;entryX=0.531;entryY=-0.01;entryDx=0;entryDy=0;entryPerimeter=0;" edge="1" parent="1" source="6SH4dM4aXBTcx1g6xvi3-56" target="6SH4dM4aXBTcx1g6xvi3-177">
          <mxGeometry relative="1" as="geometry">
            <mxPoint x="70" y="230" as="targetPoint" />
          </mxGeometry>
        </mxCell>
        <mxCell id="6SH4dM4aXBTcx1g6xvi3-177" value="Products_Suppliers" style="shape=table;startSize=30;container=1;collapsible=1;childLayout=tableLayout;fixedRows=1;rowLines=0;fontStyle=1;align=center;resizeLast=1;fillColor=#F2CC8F;fontColor=#393C56;strokeColor=#E07A5F;rounded=1;labelBackgroundColor=none;" vertex="1" parent="1">
          <mxGeometry x="-70" y="280" width="250" height="140" as="geometry" />
        </mxCell>
        <mxCell id="6SH4dM4aXBTcx1g6xvi3-178" value="" style="shape=partialRectangle;collapsible=0;dropTarget=0;pointerEvents=0;fillColor=none;points=[[0,0.5],[1,0.5]];portConstraint=eastwest;top=0;left=0;right=0;bottom=1;rounded=1;labelBackgroundColor=none;strokeColor=#E07A5F;fontColor=#393C56;" vertex="1" parent="6SH4dM4aXBTcx1g6xvi3-177">
          <mxGeometry y="30" width="250" height="70" as="geometry" />
        </mxCell>
        <mxCell id="6SH4dM4aXBTcx1g6xvi3-179" value="PK, FK1&#xa;&#xa;PK, FK2" style="shape=partialRectangle;overflow=hidden;connectable=0;fillColor=none;top=0;left=0;bottom=0;right=0;fontStyle=1;rounded=1;labelBackgroundColor=none;strokeColor=#E07A5F;fontColor=#393C56;" vertex="1" parent="6SH4dM4aXBTcx1g6xvi3-178">
          <mxGeometry width="50" height="70" as="geometry">
            <mxRectangle width="50" height="70" as="alternateBounds" />
          </mxGeometry>
        </mxCell>
        <mxCell id="6SH4dM4aXBTcx1g6xvi3-180" value="Product_id int NOT NULL&#xa;&#xa;Supplier_id int NOT NULL&#xa;" style="shape=partialRectangle;overflow=hidden;connectable=0;fillColor=none;top=0;left=0;bottom=0;right=0;align=left;spacingLeft=6;fontStyle=5;rounded=1;labelBackgroundColor=none;strokeColor=#E07A5F;fontColor=#393C56;" vertex="1" parent="6SH4dM4aXBTcx1g6xvi3-178">
          <mxGeometry x="50" width="200" height="70" as="geometry">
            <mxRectangle width="200" height="70" as="alternateBounds" />
          </mxGeometry>
        </mxCell>
        <mxCell id="6SH4dM4aXBTcx1g6xvi3-181" value="" style="shape=partialRectangle;collapsible=0;dropTarget=0;pointerEvents=0;fillColor=none;points=[[0,0.5],[1,0.5]];portConstraint=eastwest;top=0;left=0;right=0;bottom=0;rounded=1;labelBackgroundColor=none;strokeColor=#E07A5F;fontColor=#393C56;" vertex="1" parent="6SH4dM4aXBTcx1g6xvi3-177">
          <mxGeometry y="100" width="250" height="30" as="geometry" />
        </mxCell>
        <mxCell id="6SH4dM4aXBTcx1g6xvi3-182" value="" style="shape=partialRectangle;overflow=hidden;connectable=0;fillColor=none;top=0;left=0;bottom=0;right=0;rounded=1;labelBackgroundColor=none;strokeColor=#E07A5F;fontColor=#393C56;" vertex="1" parent="6SH4dM4aXBTcx1g6xvi3-181">
          <mxGeometry width="50" height="30" as="geometry">
            <mxRectangle width="50" height="30" as="alternateBounds" />
          </mxGeometry>
        </mxCell>
        <mxCell id="6SH4dM4aXBTcx1g6xvi3-183" value="SupplyPrice int NOT NULL" style="shape=partialRectangle;overflow=hidden;connectable=0;fillColor=none;top=0;left=0;bottom=0;right=0;align=left;spacingLeft=6;rounded=1;labelBackgroundColor=none;strokeColor=#E07A5F;fontColor=#393C56;" vertex="1" parent="6SH4dM4aXBTcx1g6xvi3-181">
          <mxGeometry x="50" width="200" height="30" as="geometry">
            <mxRectangle width="200" height="30" as="alternateBounds" />
          </mxGeometry>
        </mxCell>
        <mxCell id="6SH4dM4aXBTcx1g6xvi3-206" style="edgeStyle=orthogonalEdgeStyle;rounded=1;orthogonalLoop=1;jettySize=auto;html=1;entryX=-0.015;entryY=0.317;entryDx=0;entryDy=0;entryPerimeter=0;strokeColor=#E07A5F;fontColor=#393C56;fillColor=#F2CC8F;startArrow=ERone;startFill=0;endArrow=ERmany;endFill=0;" edge="1" parent="1" source="6SH4dM4aXBTcx1g6xvi3-178" target="6SH4dM4aXBTcx1g6xvi3-194">
          <mxGeometry relative="1" as="geometry" />
        </mxCell>
      </root>
    </mxGraphModel>
  </diagram>
</mxfile>
